<svg width="54" height="54" viewBox="0 0 54 54" fill="none" xmlns="http://www.w3.org/2000/svg">
<mask id="path-1-outside-1_61_75" maskUnits="userSpaceOnUse" x="-1" y="0" width="56" height="55" fill="black">
<rect fill="white" x="-1" width="56" height="55"/>
<path fill-rule="evenodd" clip-rule="evenodd" d="M37.3389 2.00003L16.6331 2L2 16.6611L2.0116 37.367L16.6611 52L37.3669 51.9884L52 37.339L51.998 33.7699H33.6394V39.7963H20.2764V16.018H33.6394V20.1448H51.9904L51.9884 16.6331L37.3389 2.00003Z"/>
</mask>
<path fill-rule="evenodd" clip-rule="evenodd" d="M37.3389 2.00003L16.6331 2L2 16.6611L2.0116 37.367L16.6611 52L37.3669 51.9884L52 37.339L51.998 33.7699H33.6394V39.7963H20.2764V16.018H33.6394V20.1448H51.9904L51.9884 16.6331L37.3389 2.00003Z" fill="#F0F0F0"/>
<path d="M16.6331 2L16.6331 0L15.8035 -1.22423e-06L15.2175 0.587141L16.6331 2ZM37.3389 2.00003L38.7524 0.585025L38.1667 3.17788e-05L37.3389 3.05572e-05L37.3389 2.00003ZM2 16.6611L0.584434 15.2482L-0.000463539 15.8343L3.13862e-07 16.6622L2 16.6611ZM2.0116 37.367L0.0116005 37.3681L0.0120646 38.1965L0.598179 38.782L2.0116 37.367ZM16.6611 52L15.2476 53.415L15.8338 54.0005L16.6622 54L16.6611 52ZM37.3669 51.9884L37.3681 53.9884L38.1965 53.988L38.7819 53.4018L37.3669 51.9884ZM52 37.339L53.415 38.7524L54.0005 38.1663L54 37.3378L52 37.339ZM51.998 33.7699L53.998 33.7687L53.9969 31.7699H51.998V33.7699ZM33.6394 33.7699V31.7699H31.6394V33.7699H33.6394ZM33.6394 39.7963V41.7963H35.6394V39.7963H33.6394ZM20.2764 39.7963H18.2764V41.7963H20.2764V39.7963ZM20.2764 16.018V14.018H18.2764V16.018H20.2764ZM33.6394 16.018H35.6394V14.018H33.6394V16.018ZM33.6394 20.1448H31.6394V22.1448H33.6394V20.1448ZM51.9904 20.1448V22.1448H53.9915L53.9904 20.1437L51.9904 20.1448ZM51.9884 16.6331L53.9884 16.632L53.9879 15.8035L53.4018 15.2181L51.9884 16.6331ZM16.6331 4L37.3389 4.00003L37.3389 3.05572e-05L16.6331 0L16.6331 4ZM3.41557 18.074L18.0486 3.41286L15.2175 0.587141L0.584434 15.2482L3.41557 18.074ZM4.0116 37.3658L4 16.66L3.13862e-07 16.6622L0.0116005 37.3681L4.0116 37.3658ZM18.0745 50.585L3.42502 35.952L0.598179 38.782L15.2476 53.415L18.0745 50.585ZM37.3658 49.9884L16.6599 50L16.6622 54L37.3681 53.9884L37.3658 49.9884ZM50.585 35.9255L35.9519 50.575L38.7819 53.4018L53.415 38.7524L50.585 35.9255ZM49.998 33.771L50 37.3401L54 37.3378L53.998 33.7687L49.998 33.771ZM33.6394 35.7699H51.998V31.7699H33.6394V35.7699ZM35.6394 39.7963V33.7699H31.6394V39.7963H35.6394ZM20.2764 41.7963H33.6394V37.7963H20.2764V41.7963ZM18.2764 16.018V39.7963H22.2764V16.018H18.2764ZM33.6394 14.018H20.2764V18.018H33.6394V14.018ZM35.6394 20.1448V16.018H31.6394V20.1448H35.6394ZM51.9904 18.1448H33.6394V22.1448H51.9904V18.1448ZM49.9884 16.6342L49.9904 20.146L53.9904 20.1437L53.9884 16.632L49.9884 16.6342ZM35.9255 3.41504L50.575 18.0481L53.4018 15.2181L38.7524 0.585025L35.9255 3.41504Z" fill="#F0F0F0" mask="url(#path-1-outside-1_61_75)"/>
<path fill-rule="evenodd" clip-rule="evenodd" d="M36.2784 4.48929L17.6965 4.48926L4.56445 17.6464L4.57486 36.2283L17.7216 49.3604L36.3035 49.3499L49.3736 36.2651H36.1293V42.2817H17.7715V13.5107H36.1083V17.6612H49.4251L49.4251 17.6213L36.2784 4.48929Z" fill="#8107AF"/>
</svg>
