<svg width="50" height="50" viewBox="0 0 50 50" fill="none" xmlns="http://www.w3.org/2000/svg">
<path d="M14.5985 15.9854H2.62773L0 14.5985L2.70073 12.0073H14.5985V15.9854Z" fill="#F0F0F0"/>
<path d="M5.32846 36.7883L2.62773 34.3065L0 35.1824L5.32846 40.5109V36.7883Z" fill="#F0F0F0"/>
<path d="M14.6715 0H33.2116V2.9197H15.6934L14.6715 0Z" fill="#F0F0F0"/>
<path d="M15.6934 2.9197L13.3576 5.18247H9.41605L14.6715 0L15.6934 2.9197Z" fill="#F0F0F0"/>
<path d="M8.06568 7.15328H33.2116V10.073H5.29196L8.06568 7.15328Z" fill="#F0F0F0"/>
<path d="M15.8394 42.1167H33.1386V45.0364H15.8394V42.1167Z" fill="#F0F0F0"/>
<path d="M15.1825 47.0802H33.2847V49.9999H13.9416L15.1825 47.0802Z" fill="#F0F0F0"/>
<path d="M13.9417 45.9854L15.1825 47.0802L13.9416 49.9999L9.92703 45.9854L13.9417 45.9854Z" fill="#F0F0F0"/>
<path d="M9.92703 17.4452H13.9416L13.9417 45.9854L9.92703 45.9854V17.4452Z" fill="#F0F0F0"/>
<path d="M5.32846 17.4452H8.02919V43.5766L5.32846 40.5109V17.4452Z" fill="#F0F0F0"/>
<path d="M0 14.5985L2.62773 15.9854V34.3065L0 35.1824V14.5985Z" fill="#F0F0F0"/>
<path d="M37.7372 2.70073L35.0364 0.218978V14.6715H37.7372V2.70073Z" fill="#F0F0F0"/>
<path d="M39.051 46.0583L35.0364 49.8539V35.4014H39.051V46.0583Z" fill="#F0F0F0"/>
<path d="M41.8978 6.56933L39.197 4.08759V14.6715H41.8978V6.56933Z" fill="#F0F0F0"/>
<path d="M49.781 14.6715L43.3576 8.24816V14.6715H49.781Z" fill="#F0F0F0"/>
<path d="M49.781 35.4014L41.9707 43.2116V35.4014H49.781Z" fill="#F0F0F0"/>
</svg>
